<svg xmlns="http://www.w3.org/2000/svg" xml:space="preserve" width="1024" height="1024"><path fill="#B7B7B7" d="M877.677 540.661c0-201.183-163.091-364.27-364.273-364.27-201.178 0-364.27 163.087-364.27 364.27 0 201.18 163.092 364.27 364.27 364.27 201.182 0 364.273-163.09 364.273-364.27z"/><path d="M401.547 346.809c-21.332-8.172-30.28-1.95-47.653 4.082-32.676 11.348-51.284-4.992-51.284-4.992s8.171 27.231 42.209 35.403c-54.918 4.082-88.046 35.854-100.755 53.55-21.623 30.116-2.269 73.071 28.594 107.561 24.49 27.368 34.493 82.602-16.34 122.994-61.974 49.251-4.086 93.496-4.086 93.496s-15.884-51.287 37.669-67.627c53.557-16.336 82.149-45.381 82.149-45.381l24.053 21.325s-12.705 33.589-66.714 43.571c0 0-16.336 12.716-5.447 42.212 0 0 36.762 10.893 95.762 12.254l20.878-14.074 48.108 6.81s48.561 51.732 132.523 87.591c0 0 16.333-1.82 23.598-27.231l-12.254-11.795s-11.799-26.78-7.262-67.624c0 0 65.242-93.948 147.389-155.218l-20.313-8.623s-38.116-69.89-93.489-120.267c0 0 25.869-46.751 85.776-102.117 0 0-38.12-4.086-108.471 44.02 0 0 5.899-63.083 29.504-131.613l-39.944 32.221s.459 53.101-25.411 68.534c0 0-14.529-23.604-7.265-80.333 0 0-18.604 6.81-26.321 44.026-5.181 24.979-18.144 29.045-18.144 29.045L540 343.633v-81.242l-19.75-24.279L498 266.114v76.698l-9.214 14.013s-13.976-11.558-15.491-29.986c-2.724-33.132-22.938-41.303-22.938-41.303s4.189 57.187-7.609 72.161c0 0-16.746-9.981-20.373-62.176l-44.45-31.77c0 .001 19.995 57.64 23.622 83.058z"/><path fill="#FFF" d="M419.703 501.116c10.434-9.533 39.031-33.131 39.031-33.131-43.113-21.332-68.527-65.358-68.527-65.358-77.605 27.684-86.694 49.926-86.694 49.926 5.447 55.37 73.078 122.087 73.078 122.087s34.489 9.979 94.853 6.351c-.001-.001-30.86-28.594-51.741-79.875z"/><path fill="#FFF" d="M541.791 471.616s-48.564 0-65.359-8.168c0 0-33.582 27.231-44.016 40.844 0 0 17.694 55.818 60.811 80.784 0 0 46.288-21.325 82.144-57.639 0 0-32.218-9.984-43.109-22.235-.001 0 1.815-11.802 9.529-33.586z"/><path fill="#FFF" d="M559.488 453.914s-10.892 24.057-15.884 46.747c0 0 14.067 16.792 48.104 24.508 0 0 39.599-35.94 51.288-65.811 12.254-31.313 73.071-92.586 73.071-92.586s-55.373 17.705-103.026 62.183c-20.911 19.516-53.553 24.959-53.553 24.959zM372.05 583.033s35.399 7.717 104.837 5.444l11.348 8.853s14.07-4.992 19.063-9.529c0 0 2.323 12.599-2.55 30.461-3.634 13.336-11.278 29.6-26.879 45.748-10.604 10.978-24.891 21.896-44.095 31.803l10.437 16.34-15.884-.451-15.885 8.619s-28.594-1.361-55.37-6.806c0 0 39.485-15.881 55.37-50.378 0 0-39.482-21.783-63.083-56.276l22.691-23.828zM336.989 718.507s32.337 6.81 74.885 10.211l17.702-8.168 18.721-.681s16.679 17.359 31.314 29.274l-40.506-7.491-22.465 15.32s-57.187-4.428-84.076-11.234c0 0-6.809-13.954 4.425-27.231zM410.629 409.437s29.384 38.236 57.07 48.673l8.168-6.803s29.952 13.613 68.418 10.55l5.786-14.635s25.188-3.744 41.867-13.958c16.679-10.211 31.995-26.551 31.995-26.551s-68.757 7.49-100.413 24.508c.001 0-64.783-20.422-112.891-21.784z"/><path fill="#FFF" d="M418.342 400.245s41.613.685 104.584 21.784c0 0 38.079-18.379 102.414-23.484 0 0 9.849-59.908 24.483-108.923l-16.688 11.572s-2.389 52.417-24.854 68.76c-12.944 9.411-25.092 15.488-47.854 16.337L533 344.763v-79.648l-13.49-16.679L505 266.134v78.29l-26.311 41.867s-20.58.451-38.001-17.698c-12.586-13.113-22.424-38.668-24.278-68.079l-26.097-20.083s26.328 66.378 28.029 119.814zM517.734 585.076s14.52 71.703-65.355 114.371c0 0 39.493 67.172 167.928 137.061 0 0 6.81-4.541 10.892-15.884 0 0-112.561-65.355-145.685-118.457 0 0 63.09-44.93 50.378-129.796l-18.158 12.705z"/><path fill="#FFF" d="M545.421 565.106s10.238 56.475-20.021 104.816c-7.433 11.86-17.301 23.231-30.353 33.155 0 0 72.154 75.788 123.442 97.575 0 0-12.254-32.221-6.358-67.169 0 0 48.112-64.444 132.527-145.232 0 0-66.269-14.526-112.102-41.299 0 0-15.43 6.806-41.299 17.701 0 0-21.78 75.789-23.598 120.267 0 0-9.53-77.034-2.272-134.225.001.001-10.884 9.867-19.966 14.411z"/><path fill="#FFF" d="M575.26 541.509s21.897 3.176 35.513.451l22.239-20.877s17.096 15.307 47.332 29.736c-11.025-21.109-22.369-44.259-22.369-44.259s35.399 34.948 57.249 57.923c6.737 2.094 14.282 3.993 21.719 5.615 0 0-36.42-63.425-85.436-106.541 0 0-7.49 16.679-22.126 34.719-11.494 14.17-34.489 34.609-34.489 34.609l-9.988-1.813-9.644 10.437z"/></svg>