<svg width="400" height="400" viewBox="0 0 400 400" fill="none" xmlns="http://www.w3.org/2000/svg">
<rect width="400" height="400" fill="white"/>
<path d="M175.611 127.405H126.81V176.056H175.611V127.405Z" fill="#4E80EE"/>
<path d="M224.401 176.056L175.611 176.056L175.599 224.707H224.401V176.056Z" fill="#4E80EE"/>
<path d="M224.401 273.349H175.599V322H224.401V273.349Z" fill="#4E80EE"/>
<path d="M224.401 78.7546H175.599L175.611 127.405L224.401 127.406V78.7546Z" fill="#4E80EE"/>
<path d="M273.21 224.698L224.401 224.707V273.349L273.21 273.35V224.698Z" fill="#4E80EE"/>
<path d="M322 175.301H273.199V223.952H322V175.301Z" fill="#121826"/>
<path d="M322 78H273.199V126.651H322V78Z" fill="#121826"/>
<path d="M322 272.602H273.199V321.253H322V272.602Z" fill="#121826"/>
<path d="M126.801 175.301H78V223.952H126.801V175.301Z" fill="#121826"/>
<path d="M126.801 78H78V126.651H126.801V78Z" fill="#121826"/>
<path d="M126.801 272.61H78V321.261H126.801V272.61Z" fill="#121826"/>
</svg>
