<?xml version="1.0" standalone="no"?>
<!DOCTYPE svg PUBLIC "-//W3C//DTD SVG 20010904//EN"
 "http://www.w3.org/TR/2001/REC-SVG-20010904/DTD/svg10.dtd">
<svg version="1.0" xmlns="http://www.w3.org/2000/svg"
 width="300.000000pt" height="300.000000pt" viewBox="0 0 300.000000 300.000000"
 preserveAspectRatio="xMidYMid meet">
<metadata>
Created by potrace 1.10, written by Peter Selinger 2001-2011
</metadata>
<g transform="translate(0.000000,300.000000) scale(0.100000,-0.100000)"
fill="#e42d8e" stroke="none">
<path d="M1290 1640 l0 -850 470 0 470 0 0 60 0 60 -405 0 -405 0 0 790 0 790
-65 0 -65 0 0 -850z"/>
<path d="M590 1556 l0 -466 55 0 55 0 0 210 0 210 69 0 68 0 124 -206 c67
-113 128 -208 135 -211 6 -2 37 -3 68 -1 l56 3 -33 55 c-19 30 -77 126 -130
212 l-96 157 55 16 c65 19 129 72 155 130 23 50 25 152 3 203 -22 55 -71 99
-133 124 -49 18 -82 22 -253 26 l-198 4 0 -466z m385 346 c64 -22 95 -65 95
-134 0 -67 -20 -101 -77 -129 -41 -20 -67 -24 -170 -27 l-123 -4 0 156 0 156
113 0 c78 -1 127 -6 162 -18z"/>
<path d="M1825 1986 c-74 -18 -125 -48 -177 -104 -58 -61 -86 -115 -104 -201
-42 -201 24 -400 164 -490 143 -91 358 -76 481 35 164 148 184 463 41 644 -83
105 -253 154 -405 116z m199 -98 c59 -18 138 -99 162 -168 26 -75 26 -234 1
-307 -25 -72 -94 -147 -154 -167 -106 -36 -236 -8 -296 64 -87 103 -111 278
-58 420 25 66 90 135 147 155 49 18 144 19 198 3z"/>
</g>
</svg>
